<svg width="85" height="54" viewBox="0 0 85 54" fill="none" xmlns="http://www.w3.org/2000/svg">
<g filter="url(#filter0_d_42_1364)">
<path d="M42.32 39.8679C41.6123 39.8679 41.0066 39.6161 40.5031 39.1126C39.9995 38.609 39.7473 38.003 39.7465 37.2944H44.8935C44.8935 38.0021 44.6417 38.6082 44.1382 39.1126C43.6346 39.617 43.0285 39.8688 42.32 39.8679ZM37.173 36.0076V33.4341H47.467V36.0076H37.173ZM37.4946 32.1474C36.0149 31.2681 34.8405 30.0886 33.9715 28.6088C33.1025 27.129 32.6685 25.5206 32.6693 23.7835C32.6693 21.1027 33.6078 18.8243 35.4847 16.9482C37.3617 15.0721 39.6401 14.1337 42.32 14.1328C44.9998 14.132 47.2787 15.0704 49.1565 16.9482C51.0343 18.826 51.9723 21.1044 51.9706 23.7835C51.9706 25.5206 51.5366 27.129 50.6684 28.6088C49.8003 30.0886 48.6259 31.2681 47.1453 32.1474H37.4946Z" fill="white"/>
</g>
<defs>
<filter id="filter0_d_42_1364" x="0.316631" y="-18.2199" width="84.0066" height="90.4405" filterUnits="userSpaceOnUse" color-interpolation-filters="sRGB">
<feFlood flood-opacity="0" result="BackgroundImageFix"/>
<feColorMatrix in="SourceAlpha" type="matrix" values="0 0 0 0 0 0 0 0 0 0 0 0 0 0 0 0 0 0 127 0" result="hardAlpha"/>
<feOffset/>
<feGaussianBlur stdDeviation="16.1763"/>
<feComposite in2="hardAlpha" operator="out"/>
<feColorMatrix type="matrix" values="0 0 0 0 1 0 0 0 0 0 0 0 0 0 0.9 0 0 0 0.6 0"/>
<feBlend mode="normal" in2="BackgroundImageFix" result="effect1_dropShadow_42_1364"/>
<feBlend mode="normal" in="SourceGraphic" in2="effect1_dropShadow_42_1364" result="shape"/>
</filter>
</defs>
</svg>
