<svg width="35" height="36" viewBox="0 0 35 36" fill="none" xmlns="http://www.w3.org/2000/svg"> <path d="M19.299 0.5C21.2677 0.50525 22.2669 0.51575 23.1296 0.540249L23.4691 0.552499C23.861 0.566498 24.2478 0.583998 24.715 0.604997C26.5769 0.692495 27.8473 0.986488 28.962 1.41873C30.117 1.86322 31.0899 2.4652 32.0629 3.43643C32.953 4.31094 33.6416 5.36921 34.0805 6.53735C34.5128 7.65208 34.8067 8.92255 34.8942 10.7863C34.9152 11.2517 34.9327 11.6385 34.9467 12.0322L34.9572 12.3717C34.9835 13.2327 34.994 14.2319 34.9975 16.2006L34.9992 17.5061V19.7985C35.0035 21.075 34.9901 22.3514 34.959 23.6274L34.9485 23.9669C34.9345 24.3607 34.917 24.7474 34.896 25.2129C34.8085 27.0766 34.511 28.3453 34.0805 29.4618C33.6416 30.6299 32.953 31.6882 32.0629 32.5627C31.1884 33.4529 30.1301 34.1415 28.962 34.5804C27.8473 35.0127 26.5769 35.3067 24.715 35.3942L23.4691 35.4467L23.1296 35.4572C22.2669 35.4817 21.2677 35.4939 19.299 35.4974L17.9936 35.4992H15.703C14.426 35.5037 13.149 35.4902 11.8724 35.4589L11.5329 35.4484C11.1175 35.4327 10.7022 35.4146 10.287 35.3942C8.42507 35.3067 7.15463 35.0127 6.03819 34.5804C4.8707 34.1413 3.81308 33.4527 2.9391 32.5627C2.0483 31.6884 1.35912 30.6301 0.919699 29.4618C0.487471 28.3471 0.193486 27.0766 0.10599 25.2129L0.0534926 23.9669L0.0447433 23.6274C0.0124855 22.3514 -0.00209866 21.075 0.000995344 19.7985V16.2006C-0.00384823 14.9242 0.00898582 13.6478 0.0394935 12.3717L0.0517429 12.0322C0.0657422 11.6385 0.0832412 11.2517 0.10424 10.7863C0.191736 8.92255 0.485721 7.65383 0.917949 6.53735C1.35839 5.36873 2.04878 4.31042 2.94085 3.43643C3.81432 2.54666 4.87133 1.8581 6.03819 1.41873C7.15463 0.986488 8.42332 0.692495 10.287 0.604997C10.7525 0.583998 11.1409 0.566498 11.5329 0.552499L11.8724 0.541999C13.1484 0.510907 14.4248 0.497489 15.7012 0.50175L19.299 0.5ZM17.5001 9.24979C15.1796 9.24979 12.9541 10.1716 11.3132 11.8125C9.67238 13.4534 8.75055 15.679 8.75055 17.9996C8.75055 20.3202 9.67238 22.5457 11.3132 24.1866C12.9541 25.8275 15.1796 26.7494 17.5001 26.7494C19.8206 26.7494 22.0461 25.8275 23.687 24.1866C25.3278 22.5457 26.2497 20.3202 26.2497 17.9996C26.2497 15.679 25.3278 13.4534 23.687 11.8125C22.0461 10.1716 19.8206 9.24979 17.5001 9.24979ZM17.5001 12.7497C18.1895 12.7496 18.8722 12.8853 19.5092 13.149C20.1461 13.4127 20.7249 13.7993 21.2125 14.2867C21.7001 14.7742 22.0868 15.3528 22.3508 15.9897C22.6147 16.6266 22.7506 17.3093 22.7507 17.9987C22.7508 18.6881 22.6152 19.3708 22.3514 20.0078C22.0877 20.6448 21.7011 21.2236 21.2137 21.7112C20.7263 22.1988 20.1477 22.5856 19.5108 22.8495C18.8739 23.1134 18.1913 23.2493 17.5019 23.2494C16.1095 23.2494 14.7743 22.6963 13.7897 21.7118C12.8052 20.7273 12.2521 19.3919 12.2521 17.9996C12.2521 16.6072 12.8052 15.2719 13.7897 14.2874C14.7743 13.3028 16.1095 12.7497 17.5019 12.7497M26.6889 6.62485C26.1088 6.62485 25.5524 6.85531 25.1422 7.26554C24.732 7.67577 24.5015 8.23215 24.5015 8.8123C24.5015 9.39245 24.732 9.94883 25.1422 10.3591C25.5524 10.7693 26.1088 10.9997 26.6889 10.9997C27.269 10.9997 27.8254 10.7693 28.2356 10.3591C28.6458 9.94883 28.8763 9.39245 28.8763 8.8123C28.8763 8.23215 28.6458 7.67577 28.2356 7.26554C27.8254 6.85531 27.269 6.62485 26.6889 6.62485Z" fill="black"/> </svg>