<svg width="28" height="28" viewBox="0 0 28 28" fill="none" xmlns="http://www.w3.org/2000/svg">
<path d="M5.6 12.1333C7.77778 16.4889 11.5111 20.0667 15.8667 22.4L19.2889 18.9778C19.7556 18.5111 20.3778 18.3556 20.8444 18.6667C22.5556 19.2889 24.4222 19.6 26.4444 19.6C27.3778 19.6 28 20.2222 28 21.1556V26.4444C28 27.3778 27.3778 28 26.4444 28C11.8222 28 0 16.1778 0 1.55556C0 0.622222 0.777778 0 1.55556 0H7C7.93333 0 8.55556 0.622222 8.55556 1.55556C8.55556 3.42222 8.86667 5.28889 9.48889 7.15556C9.64445 7.62222 9.48889 8.24444 9.17778 8.71111L5.6 12.1333ZM17.1111 0C16.1778 0 15.5556 0.622222 15.5556 1.55556C15.5556 2.48889 16.1778 3.11111 17.1111 3.11111C18.0444 3.11111 18.6667 2.48889 18.6667 1.55556C18.6667 0.622222 18.0444 0 17.1111 0ZM21.7778 0C20.8444 0 20.2222 0.622222 20.2222 1.55556C20.2222 2.48889 20.8444 3.11111 21.7778 3.11111C22.7111 3.11111 23.3333 2.48889 23.3333 1.55556C23.3333 0.622222 22.7111 0 21.7778 0ZM26.4444 0C25.5111 0 24.8889 0.622222 24.8889 1.55556C24.8889 2.48889 25.5111 3.11111 26.4444 3.11111C27.3778 3.11111 28 2.48889 28 1.55556C28 0.622222 27.3778 0 26.4444 0ZM17.1111 4.66667C16.1778 4.66667 15.5556 5.28889 15.5556 6.22222C15.5556 7.15556 16.1778 7.77778 17.1111 7.77778C18.0444 7.77778 18.6667 7.15556 18.6667 6.22222C18.6667 5.28889 18.0444 4.66667 17.1111 4.66667ZM21.7778 4.66667C20.8444 4.66667 20.2222 5.28889 20.2222 6.22222C20.2222 7.15556 20.8444 7.77778 21.7778 7.77778C22.7111 7.77778 23.3333 7.15556 23.3333 6.22222C23.3333 5.28889 22.7111 4.66667 21.7778 4.66667ZM26.4444 4.66667C25.5111 4.66667 24.8889 5.28889 24.8889 6.22222C24.8889 7.15556 25.5111 7.77778 26.4444 7.77778C27.3778 7.77778 28 7.15556 28 6.22222C28 5.28889 27.3778 4.66667 26.4444 4.66667ZM17.1111 9.33333C16.1778 9.33333 15.5556 9.95556 15.5556 10.8889C15.5556 11.8222 16.1778 12.4444 17.1111 12.4444C18.0444 12.4444 18.6667 11.8222 18.6667 10.8889C18.6667 9.95556 18.0444 9.33333 17.1111 9.33333ZM21.7778 9.33333C20.8444 9.33333 20.2222 9.95556 20.2222 10.8889C20.2222 11.8222 20.8444 12.4444 21.7778 12.4444C22.7111 12.4444 23.3333 11.8222 23.3333 10.8889C23.3333 9.95556 22.7111 9.33333 21.7778 9.33333ZM26.4444 9.33333C25.5111 9.33333 24.8889 9.95556 24.8889 10.8889C24.8889 11.8222 25.5111 12.4444 26.4444 12.4444C27.3778 12.4444 28 11.8222 28 10.8889C28 9.95556 27.3778 9.33333 26.4444 9.33333Z" fill="white"/>
</svg>
